<svg width="50" height="43" viewBox="0 0 50 43" fill="none" xmlns="http://www.w3.org/2000/svg">
<rect x="26" width="24" height="24" rx="12" fill="#ECDBBA"/>
<path d="M23.9161 11.1488C23.7363 10.969 23.5265 10.8791 23.2867 10.8791C23.047 10.8791 22.8372 10.969 22.6573 11.1488L17.3077 16.4985C17.1279 16.6783 17.038 16.8881 17.038 17.1279C17.038 17.3676 17.1279 17.5699 17.3077 17.7347C17.4875 17.8996 17.6973 17.982 17.9371 17.982C18.1768 17.982 18.3866 17.9071 18.5664 17.7572L23.9161 12.4076C24.0959 12.2278 24.1858 12.018 24.1858 11.7782C24.1858 11.5384 24.0959 11.3287 23.9161 11.1488ZM24.7253 17.0379C24.965 17.0379 25.1748 16.948 25.3546 16.7682C25.5345 16.5884 25.6244 16.3786 25.6244 16.1388C25.6244 15.8991 25.5345 15.6893 25.3546 15.5095C25.1748 15.3297 24.965 15.2397 24.7253 15.2397C24.4855 15.2397 24.2757 15.3297 24.0959 15.5095C23.9161 15.6893 23.8262 15.8991 23.8262 16.1388C23.8262 16.3786 23.9161 16.5884 24.0959 16.7682C24.2757 16.948 24.4855 17.0379 24.7253 17.0379ZM21.4885 18.1169L18.8811 20.7243C18.7013 20.9041 18.6114 21.1139 18.6114 21.3536C18.6114 21.5934 18.7013 21.7957 18.8811 21.9605C19.0609 22.1254 19.2707 22.2078 19.5105 22.2078C19.7502 22.2078 19.96 22.1328 20.1399 21.983L22.7473 19.3756C22.9271 19.1958 23.017 18.986 23.017 18.7462C23.017 18.5065 22.9271 18.2967 22.7473 18.1169C22.5674 17.937 22.3576 17.8471 22.1179 17.8471C21.8781 17.8471 21.6683 17.937 21.4885 18.1169ZM44.6404 21.3536C44.5804 21.1438 44.468 20.9715 44.3032 20.8366C44.1384 20.7018 43.9436 20.6343 43.7188 20.6343C43.494 20.6343 43.2917 20.7243 43.1119 20.9041C42.7822 21.2637 42.4226 21.5484 42.033 21.7582V7.10288C42.033 6.23375 41.8232 5.43205 41.4036 4.69778C40.984 3.96352 40.4071 3.3791 39.6728 2.94454C38.9386 2.50997 38.1369 2.29269 37.2677 2.29269H4.81019C3.94106 2.29269 3.13936 2.50997 2.40509 2.94454C1.67083 3.3791 1.08641 3.96352 0.651848 4.69778C0.217283 5.43205 0 6.23375 0 7.10288V29.3556C0 30.2248 0.217283 31.0265 0.651848 31.7607C1.08641 32.495 1.67083 33.0719 2.40509 33.4915C3.13936 33.9111 3.94106 34.1358 4.81019 34.1658H13.6214L13.3067 36.6383H10.8342C10.2348 36.6383 9.72527 36.8481 9.30569 37.2677C8.88611 37.6873 8.67632 38.1818 8.67632 38.7512V41.4935C8.67632 41.8232 8.7962 42.1079 9.03596 42.3476C9.27572 42.5874 9.56044 42.7073 9.89011 42.7073H30.1648C30.4945 42.7073 30.7792 42.5874 31.019 42.3476C31.2587 42.1079 31.3786 41.8232 31.3786 41.4935V38.7512C31.3786 38.1818 31.1688 37.6873 30.7493 37.2677C30.3297 36.8481 29.8352 36.6383 29.2657 36.6383H27.5125L27.1978 34.1658H31.4685C32.8172 35.6343 34.4056 36.6533 36.2338 37.2228C36.3237 37.2527 36.4136 37.2677 36.5035 37.2677C36.5934 37.2677 36.6833 37.2527 36.7732 37.2228H36.7283C38.1968 36.7732 39.5155 36.024 40.6843 34.975C41.8531 33.9261 42.8047 32.6598 43.539 31.1763C44.2732 29.6928 44.7303 28.1044 44.9101 26.4111C45.0899 24.7178 45 23.032 44.6404 21.3536ZM29.5804 38.7512V40.954H10.4745V38.7512C10.4745 38.6613 10.5045 38.5789 10.5644 38.504C10.6244 38.4291 10.7143 38.3916 10.8342 38.3916H29.2657C29.3556 38.3916 29.4306 38.4291 29.4905 38.504C29.5504 38.5789 29.5804 38.6613 29.5804 38.7512ZM25.7143 36.6383H15.0599L15.3746 34.1658H25.4446L25.7143 36.6383ZM4.81019 32.3676C3.97103 32.3676 3.25175 32.0754 2.65235 31.491C2.05295 30.9066 1.75325 30.1948 1.75325 29.3556V7.10288C1.75325 6.26372 2.05295 5.54444 2.65235 4.94504C3.25175 4.34564 3.97103 4.04594 4.81019 4.04594H37.2228C38.0619 4.04594 38.7812 4.34564 39.3806 4.94504C39.98 5.54444 40.2797 6.26372 40.2797 7.10288V22.2078H40.1449C39.2757 22.1778 38.4965 21.9081 37.8072 21.3986V8.5864C37.8072 8.01697 37.6124 7.53745 37.2228 7.14783C36.8332 6.75822 36.3686 6.56342 35.8292 6.56342H6.2038C5.66434 6.56342 5.1998 6.75822 4.81019 7.14783C4.42058 7.53745 4.22577 8.01697 4.22577 8.5864V25.6244C4.22577 26.1638 4.42058 26.6284 4.81019 27.018C5.1998 27.4076 5.66434 27.6024 6.2038 27.6024H16.6783C16.9181 27.6024 17.1279 27.5125 17.3077 27.3327C17.4875 27.1528 17.5774 26.943 17.5774 26.7033C17.5774 26.4635 17.4875 26.2537 17.3077 26.0739C17.1279 25.8941 16.9181 25.8042 16.6783 25.8042L6.2038 25.8491C6.05395 25.8192 5.97902 25.7442 5.97902 25.6244V8.5864C5.97902 8.52646 6.0015 8.47401 6.04645 8.42905C6.09141 8.3841 6.14386 8.36162 6.2038 8.36162H35.8292C35.8891 8.36162 35.9416 8.37661 35.9865 8.40658C36.0315 8.43655 36.0539 8.4815 36.0539 8.54144V20.5444C35.964 20.6044 35.8891 20.6643 35.8292 20.7243V20.7692C34.99 21.6983 33.9935 22.1778 32.8397 22.2078C31.6858 22.2377 30.6893 21.8032 29.8501 20.9041C29.6703 20.7243 29.468 20.6343 29.2433 20.6343C29.0185 20.6343 28.8237 20.7018 28.6588 20.8366C28.494 20.9715 28.3966 21.1438 28.3666 21.3536H28.3217C28.0819 22.4026 27.962 23.5265 27.962 24.7253C27.962 25.1149 27.977 25.5045 28.007 25.8941V25.8491H24.8601C24.6204 25.8491 24.4106 25.9316 24.2308 26.0964C24.0509 26.2612 23.961 26.4635 23.961 26.7033C23.961 26.943 24.0509 27.1528 24.2308 27.3327C24.4106 27.5125 24.6204 27.6024 24.8601 27.6024H28.2318C28.4715 28.8611 28.8761 30.0449 29.4456 31.1538C29.6553 31.5734 29.8801 31.978 30.1199 32.3676H4.81019ZM36.5035 35.4246C35.035 34.9151 33.7612 34.0384 32.6823 32.7947C31.6034 31.5509 30.8092 30.0824 30.2997 28.3891C29.7902 26.6958 29.6404 24.95 29.8501 23.1518C30.7792 23.7213 31.7982 24.006 32.9071 24.006C34.2258 23.976 35.4246 23.4965 36.5035 22.5674C37.5524 23.4965 38.7512 23.976 40.0999 24.006H40.2348C41.2837 24.006 42.2577 23.7213 43.1568 23.1518C43.3367 24.95 43.1793 26.6958 42.6848 28.3891C42.1903 30.0824 41.4036 31.5509 40.3247 32.7947C39.2458 34.0384 37.972 34.9151 36.5035 35.4246ZM20.8142 25.8042H20.7692C20.5295 25.8042 20.3272 25.8941 20.1623 26.0739C19.9975 26.2537 19.9151 26.4635 19.9151 26.7033C19.9151 26.943 19.9975 27.1528 20.1623 27.3327C20.3272 27.5125 20.5295 27.6024 20.7692 27.6024H20.8142C21.0539 27.6024 21.2562 27.5125 21.4211 27.3327C21.5859 27.1528 21.6683 26.943 21.6683 26.7033C21.6683 26.4635 21.5859 26.2537 21.4211 26.0739C21.2562 25.8941 21.0539 25.8042 20.8142 25.8042Z" fill="#434A57"/>
</svg>
