<svg width="51" height="45" viewBox="0 0 51 45" fill="none" xmlns="http://www.w3.org/2000/svg">
<rect x="26.0596" width="24" height="24" rx="12" fill="#ECDBBA"/>
<path d="M27.4821 14.3407H17.637C16.7379 14.3407 15.9737 14.6553 15.3443 15.2847C14.7149 15.9141 14.4002 16.6783 14.4002 17.5774V27.4226C14.4002 28.3217 14.7149 29.0859 15.3443 29.7153C15.9737 30.3447 16.7379 30.6593 17.637 30.6593H18.626C18.8658 30.6593 19.0756 30.5769 19.2554 30.4121C19.4352 30.2473 19.5251 30.045 19.5251 29.8052C19.5251 29.5654 19.4352 29.3556 19.2554 29.1758C19.0756 28.996 18.8658 28.9061 18.626 28.9061H17.637C17.2174 28.9061 16.8653 28.7637 16.5805 28.479C16.2958 28.1943 16.1535 27.8422 16.1535 27.4226V17.5774C16.1535 17.1578 16.2958 16.8057 16.5805 16.521C16.8653 16.2363 17.2174 16.0939 17.637 16.0939H27.4821C27.9017 16.0939 28.2539 16.2363 28.5386 16.521C28.8233 16.8057 28.9657 17.1578 28.9657 17.5774V27.4226C28.9657 27.8422 28.8233 28.1943 28.5386 28.479C28.2539 28.7637 27.9017 28.9061 27.4821 28.9061H26.4931C26.2534 28.9061 26.0511 28.996 25.8862 29.1758C25.7214 29.3556 25.639 29.5654 25.639 29.8052C25.639 30.045 25.7214 30.2473 25.8862 30.4121C26.0511 30.5769 26.2534 30.6593 26.4931 30.6593H27.4821C28.3812 30.6593 29.1455 30.3447 29.7749 29.7153C30.4042 29.0859 30.7189 28.3217 30.7189 27.4226V17.5774C30.7189 16.6783 30.4042 15.9141 29.7749 15.2847C29.1455 14.6553 28.3812 14.3407 27.4821 14.3407ZM13.0516 12.0929C12.8118 12.0929 12.602 12.1828 12.4222 12.3626C12.2424 12.5425 12.1525 12.7522 12.1525 12.992C12.1525 13.2318 12.2424 13.4416 12.4222 13.6214C12.602 13.8012 12.8118 13.8911 13.0516 13.8911C13.3213 13.8911 13.5386 13.8012 13.7034 13.6214C13.8683 13.4416 13.9507 13.2318 13.9507 12.992C13.9507 12.7522 13.8683 12.5425 13.7034 12.3626C13.5386 12.1828 13.3213 12.0929 13.0516 12.0929ZM32.0676 13.8911C32.3073 13.8911 32.5171 13.8012 32.6969 13.6214C32.8768 13.4416 32.9667 13.2318 32.9667 12.992C32.9667 12.7522 32.8768 12.5425 32.6969 12.3626C32.5171 12.1828 32.3073 12.0929 32.0676 12.0929C31.7978 12.0929 31.5805 12.1828 31.4157 12.3626C31.2509 12.5425 31.1685 12.7522 31.1685 12.992C31.1685 13.2318 31.2509 13.4416 31.4157 13.6214C31.5805 13.8012 31.7978 13.8911 32.0676 13.8911ZM13.0516 31.1089C12.8118 31.1089 12.602 31.1988 12.4222 31.3786C12.2424 31.5584 12.1525 31.7682 12.1525 32.008C12.1525 32.2478 12.2424 32.4575 12.4222 32.6374C12.602 32.8172 12.8118 32.9071 13.0516 32.9071C13.2913 32.9071 13.5011 32.8172 13.6809 32.6374C13.8608 32.4575 13.9507 32.2478 13.9507 32.008C13.9507 31.7682 13.8608 31.5584 13.6809 31.3786C13.5011 31.1988 13.2913 31.1089 13.0516 31.1089ZM32.0676 31.1089C31.8278 31.1089 31.618 31.1988 31.4382 31.3786C31.2584 31.5584 31.1685 31.7682 31.1685 32.008C31.1685 32.2478 31.2584 32.4575 31.4382 32.6374C31.618 32.8172 31.8278 32.9071 32.0676 32.9071C32.3073 32.9071 32.5171 32.8172 32.6969 32.6374C32.8768 32.4575 32.9667 32.2478 32.9667 32.008C32.9667 31.7682 32.8768 31.5584 32.6969 31.3786C32.5171 31.1988 32.3073 31.1089 32.0676 31.1089ZM22.582 28.9061C22.3123 28.9061 22.095 28.996 21.9302 29.1758C21.7654 29.3556 21.6829 29.5654 21.6829 29.8052C21.6829 30.045 21.7654 30.2473 21.9302 30.4121C22.095 30.5769 22.2973 30.6593 22.5371 30.6593H22.582C22.8218 30.6593 23.0316 30.5769 23.2114 30.4121C23.3912 30.2473 23.4811 30.045 23.4811 29.8052C23.4811 29.5654 23.3912 29.3556 23.2114 29.1758C23.0316 28.996 22.8218 28.9061 22.582 28.9061ZM44.1605 21.6234H37.7769V16.6334H40.9237C41.1635 16.6334 41.3658 16.5435 41.5306 16.3636C41.6954 16.1838 41.7779 15.974 41.7779 15.7343C41.7779 15.4945 41.6954 15.2847 41.5306 15.1049C41.3658 14.9251 41.1635 14.8352 40.9237 14.8352H37.7769V12.8122C37.7769 11.7932 37.5296 10.8641 37.0351 10.025C36.5406 9.18581 35.8663 8.51898 35.0121 8.02448C34.158 7.52997 33.2364 7.28272 32.2474 7.28272H30.2244V4.13586C30.2244 3.8961 30.1345 3.69381 29.9547 3.52897C29.7749 3.36414 29.5651 3.28172 29.3253 3.28172C29.0855 3.28172 28.8758 3.36414 28.6959 3.52897C28.5161 3.69381 28.4262 3.8961 28.4262 4.13586V7.28272H23.4362V0.899101C23.4362 0.659341 23.3538 0.44955 23.1889 0.26973C23.0241 0.0899101 22.8143 -2.98023e-08 22.5596 -2.98023e-08C22.3048 -2.98023e-08 22.095 0.0899101 21.9302 0.26973C21.7654 0.44955 21.6829 0.659341 21.6829 0.899101V7.28272H16.6929V4.13586C16.6929 3.8961 16.603 3.69381 16.4232 3.52897C16.2434 3.36414 16.0336 3.28172 15.7938 3.28172C15.5541 3.28172 15.3443 3.36414 15.1645 3.52897C14.9846 3.69381 14.8947 3.8961 14.8947 4.13586V7.28272H12.8718C11.8827 7.28272 10.9612 7.52997 10.107 8.02448C9.25288 8.51898 8.57855 9.18581 8.08405 10.025C7.58954 10.8641 7.34229 11.7932 7.34229 12.8122V14.8352H4.19543C3.95567 14.8352 3.75338 14.9251 3.58854 15.1049C3.42371 15.2847 3.34129 15.4945 3.34129 15.7343C3.34129 15.974 3.42371 16.1838 3.58854 16.3636C3.75338 16.5435 3.95567 16.6334 4.19543 16.6334H7.34229V21.6234H0.958671C0.718911 21.6234 0.509121 21.7058 0.329301 21.8706C0.14948 22.0355 0.0595703 22.2453 0.0595703 22.5C0.0595703 22.7547 0.14948 22.9645 0.329301 23.1294C0.509121 23.2942 0.718911 23.3766 0.958671 23.3766H7.34229V28.3666H4.19543C3.95567 28.3666 3.75338 28.4565 3.58854 28.6364C3.42371 28.8162 3.34129 29.026 3.34129 29.2657C3.34129 29.5055 3.42371 29.7153 3.58854 29.8951C3.75338 30.0749 3.95567 30.1648 4.19543 30.1648H7.34229V32.1878C7.34229 33.1768 7.58954 34.0984 8.08405 34.9525C8.57855 35.8067 9.25288 36.481 10.107 36.9755C10.9612 37.47 11.8827 37.7173 12.8718 37.7173H15.0296V40.8641C15.0296 41.1039 15.112 41.3062 15.2769 41.471C15.4417 41.6359 15.6515 41.7183 15.9062 41.7183C16.161 41.7183 16.3708 41.6359 16.5356 41.471C16.7004 41.3062 16.7828 41.1039 16.7828 40.8641V37.7173H21.7729V44.1009C21.7729 44.3407 21.8628 44.5504 22.0426 44.7303C22.2224 44.9101 22.4322 45 22.672 45C22.9117 45 23.114 44.9101 23.2789 44.7303C23.4437 44.5504 23.5261 44.3407 23.5261 44.1009V37.7173H28.5611V40.8641C28.5611 41.1039 28.6435 41.3062 28.8083 41.471C28.9732 41.6359 29.1755 41.7183 29.4152 41.7183C29.655 41.7183 29.8648 41.6359 30.0446 41.471C30.2244 41.3062 30.3143 41.1039 30.3143 40.8641V37.7173H32.2474C33.2364 37.7173 34.158 37.47 35.0121 36.9755C35.8663 36.481 36.5406 35.8067 37.0351 34.9525C37.5296 34.0984 37.7769 33.1768 37.7769 32.1878V30.1648H40.9237C41.1635 30.1648 41.3658 30.0749 41.5306 29.8951C41.6954 29.7153 41.7779 29.5055 41.7779 29.2657C41.7779 29.026 41.6954 28.8162 41.5306 28.6364C41.3658 28.4565 41.1635 28.3666 40.9237 28.3666H37.7769V23.3766H44.1605C44.4002 23.3766 44.61 23.2942 44.7898 23.1294C44.9697 22.9645 45.0596 22.7547 45.0596 22.5C45.0596 22.2453 44.9697 22.0355 44.7898 21.8706C44.61 21.7058 44.4002 21.6234 44.1605 21.6234ZM36.0236 32.1878C36.0236 33.2368 35.6565 34.1284 34.9222 34.8626C34.1879 35.5969 33.2963 35.964 32.2474 35.964H12.8718C11.8228 35.964 10.9312 35.5969 10.1969 34.8626C9.46267 34.1284 9.09553 33.2368 9.09553 32.1878V12.8122C9.09553 11.7632 9.46267 10.8716 10.1969 10.1374C10.9312 9.4031 11.8228 9.03596 12.8718 9.03596H32.2474C33.2963 9.03596 34.1879 9.4031 34.9222 10.1374C35.6565 10.8716 36.0236 11.7632 36.0236 12.8122V32.1878Z" fill="#434A57"/>
</svg>
