<svg width="49" height="45" viewBox="0 0 49 45" fill="none" xmlns="http://www.w3.org/2000/svg">
<rect x="24.0596" width="24" height="24" rx="12" fill="#ECDBBA"/>
<path d="M26.5609 21.8032H8.12936C7.85963 21.8032 7.64235 21.8931 7.47752 22.0729C7.31268 22.2527 7.23026 22.4625 7.23026 22.7023C7.23026 22.9421 7.31268 23.1518 7.47752 23.3317C7.64235 23.5115 7.85963 23.6014 8.12936 23.6014H26.6059C26.8456 23.6014 27.0554 23.5115 27.2353 23.3317C27.4151 23.1518 27.505 22.9421 27.505 22.7023C27.505 22.4625 27.4151 22.2527 27.2353 22.0729C27.0554 21.8931 26.8456 21.8032 26.6059 21.8032H26.5609ZM26.5609 27.018H8.12936C7.85963 27.018 7.64235 27.1004 7.47752 27.2652C7.31268 27.4301 7.23026 27.6399 7.23026 27.8946C7.23026 28.1494 7.31268 28.3591 7.47752 28.524C7.64235 28.6888 7.85963 28.7712 8.12936 28.7712H26.6059C26.8456 28.7712 27.0554 28.6888 27.2353 28.524C27.4151 28.3591 27.505 28.1494 27.505 27.8946C27.505 27.6399 27.4151 27.4301 27.2353 27.2652C27.0554 27.1004 26.8456 27.018 26.6059 27.018H26.5609ZM26.5609 32.1878H8.12936C7.85963 32.1878 7.64235 32.2777 7.47752 32.4575C7.31268 32.6374 7.23026 32.8472 7.23026 33.0869C7.23026 33.3267 7.31268 33.5365 7.47752 33.7163C7.64235 33.8961 7.85963 33.986 8.12936 33.986H26.6059C26.8456 33.986 27.0479 33.8961 27.2128 33.7163C27.3776 33.5365 27.46 33.3267 27.46 33.0869C27.46 32.8472 27.3776 32.6374 27.2128 32.4575C27.0479 32.2777 26.8456 32.1878 26.6059 32.1878H26.5609ZM38.2043 4.36064H35.3721V1.52847C35.3721 1.10889 35.2223 0.749251 34.9226 0.44955C34.6229 0.14985 34.2632 -2.98023e-08 33.8436 -2.98023e-08H30.1124C29.6628 -2.98023e-08 29.2882 0.14985 28.9885 0.44955C28.6888 0.749251 28.539 1.10889 28.539 1.52847V4.36064H25.7517C25.4221 4.36064 25.1224 4.45804 24.8526 4.65285C24.5829 4.84765 24.3881 5.09491 24.2682 5.39461H10.6918C10.452 5.39461 10.2423 5.48452 10.0624 5.66434L1.11638 14.5654C0.966527 14.7453 0.891602 14.955 0.891602 15.1948V42.6174C0.891602 43.2767 1.12387 43.8387 1.5884 44.3032C2.05294 44.7677 2.61488 45 3.27422 45H31.7757C32.4351 45 32.997 44.7677 33.4615 44.3032C33.9261 43.8387 34.1583 43.2767 34.1583 42.6174V30.6144C34.1583 30.3746 34.0759 30.1723 33.9111 30.0075C33.7462 29.8427 33.5439 29.7602 33.3042 29.7602C33.0644 29.7602 32.8546 29.8427 32.6748 30.0075C32.495 30.1723 32.4051 30.3746 32.4051 30.6144V42.5724C32.4051 42.7522 32.3451 42.9021 32.2253 43.022C32.1054 43.1419 31.9555 43.2168 31.7757 43.2468H3.27422C3.0944 43.2168 2.94455 43.1419 2.82467 43.022C2.70479 42.9021 2.64485 42.7672 2.64485 42.6174V16.0939H8.8936C9.64285 16.0939 10.2797 15.8317 10.8042 15.3072C11.3287 14.7827 11.5909 14.1459 11.5909 13.3966V7.14785H24.1783V9.62038C24.1783 10.04 24.3282 10.4071 24.6279 10.7218C24.9276 11.0365 25.3022 11.1938 25.7517 11.1938H28.539V13.981C28.539 14.4006 28.6888 14.7677 28.9885 15.0824C29.2882 15.3971 29.6628 15.5544 30.1124 15.5544H32.4051V22.6124C32.4051 22.8521 32.495 23.0544 32.6748 23.2193C32.8546 23.3841 33.0644 23.4665 33.3042 23.4665C33.5439 23.4665 33.7462 23.3841 33.9111 23.2193C34.0759 23.0544 34.1583 22.8521 34.1583 22.6124V15.5095C34.518 15.4196 34.8102 15.2323 35.035 14.9476C35.2597 14.6628 35.3721 14.3407 35.3721 13.981V11.1938H38.2043C38.6239 11.1938 38.9835 11.0365 39.2832 10.7218C39.5829 10.4071 39.7328 10.04 39.7328 9.62038V5.88911C39.7328 5.46953 39.5829 5.10989 39.2832 4.81019C38.9835 4.51049 38.6239 4.36064 38.2043 4.36064ZM8.8936 14.3407H3.90359L9.7927 8.40659V13.3966C9.7927 13.6663 9.70279 13.8911 9.52297 14.0709C9.34315 14.2507 9.13336 14.3407 8.8936 14.3407ZM37.9795 9.3956H34.473C34.2333 9.3956 34.031 9.48551 33.8661 9.66533C33.7013 9.84515 33.6189 10.0549 33.6189 10.2947V13.7562H30.3372V10.2947C30.3372 10.0549 30.2472 9.84515 30.0674 9.66533C29.8876 9.48551 29.6778 9.3956 29.4381 9.3956H25.9765V6.11389H29.4381C29.6778 6.11389 29.8876 6.03147 30.0674 5.86663C30.2472 5.7018 30.3372 5.4995 30.3372 5.25974V1.75325H33.6189V5.25974C33.6189 5.4995 33.7013 5.7018 33.8661 5.86663C34.031 6.03147 34.2333 6.11389 34.473 6.11389H37.9795V9.3956ZM33.3042 25.7143C33.0345 25.7143 32.8172 25.8042 32.6523 25.984C32.4875 26.1638 32.4051 26.3736 32.4051 26.6134C32.4051 26.8531 32.495 27.0554 32.6748 27.2203C32.8546 27.3851 33.0644 27.4675 33.3042 27.4675C33.5439 27.4675 33.7462 27.3851 33.9111 27.2203C34.0759 27.0554 34.1583 26.8531 34.1583 26.6134C34.1583 26.3736 34.0759 26.1638 33.9111 25.984C33.7462 25.8042 33.5439 25.7143 33.3042 25.7143Z" fill="#434A57"/>
</svg>
