<svg width="49" height="44" viewBox="0 0 49 44" fill="none" xmlns="http://www.w3.org/2000/svg">
<rect x="25" width="24" height="24" rx="12" fill="#ECDBBA"/>
<g clip-path="url(#clip0_204_9398)">
<path d="M40.4396 15.6484C39.6484 13.4799 38.4322 12.0293 36.7912 11.2967C35.3553 10.652 33.7436 10.6374 31.956 11.2528C31.2234 9.52383 30.1978 8.01467 28.8791 6.72529C28.7033 6.57877 28.4982 6.50551 28.2637 6.50551C28.0293 6.50551 27.8315 6.5861 27.6703 6.74727C27.5092 6.90844 27.4286 7.11357 27.4286 7.36266C27.4286 7.61174 27.5165 7.82419 27.6923 8.00002C29.0403 9.2894 30.0073 10.8132 30.5934 12.5714L30.6374 12.6154C30.696 12.7912 30.7985 12.9377 30.9451 13.055C31.0916 13.1722 31.2674 13.2308 31.4725 13.2308C31.5897 13.2308 31.707 13.2015 31.8242 13.1429C33.4652 12.4396 34.8864 12.3517 36.0879 12.8791C37.348 13.4652 38.2857 14.696 38.9011 16.5714C38.989 16.8059 39.1502 16.9671 39.3846 17.055C40.2344 17.4945 40.9231 18.1172 41.4506 18.9231C41.978 19.729 42.2564 20.6301 42.2857 21.6264C42.2857 22.5348 42.0586 23.3773 41.6044 24.1539C41.1502 24.9304 40.5348 25.5385 39.7582 25.978C38.9817 26.4176 38.1392 26.6374 37.2308 26.6374H29.9341C29.9927 26.1392 29.9194 25.6923 29.7143 25.2967C29.5092 24.9011 29.2161 24.5861 28.8352 24.3517C28.4542 24.1172 28.0293 23.9854 27.5604 23.9561H26.2418V18.9011C26.2418 18.1978 26 17.6264 25.5165 17.1868C25.033 16.7473 24.3956 16.5275 23.6044 16.5275H18.989C18.2271 16.5275 17.6044 16.7473 17.1209 17.1868C16.6374 17.6264 16.3956 18.1978 16.3956 18.9011V23.9561H15.0769C14.5788 23.9854 14.1392 24.1172 13.7582 24.3517C13.3773 24.5861 13.0989 24.8791 12.9231 25.2308C12.7473 25.5824 12.6593 25.9487 12.6593 26.3297L12.7033 26.6813L6.76923 26.6374C5.86081 26.6374 5.01832 26.4176 4.24176 25.978C3.4652 25.5385 2.84982 24.9304 2.3956 24.1539C1.94139 23.3773 1.71429 22.5348 1.71429 21.6264C1.71429 20.6301 1.97802 19.7216 2.50549 18.9011C3.03297 18.0806 3.75092 17.4506 4.65934 17.011C4.98169 16.8645 5.15751 16.6154 5.18681 16.2638C5.21612 15.4725 5.4359 14.8645 5.84615 14.4396C6.25641 14.0147 6.9304 13.7143 7.86813 13.5385C8.19048 13.4799 8.41026 13.2894 8.52747 12.9671C9.08425 11.1795 10 9.61907 11.2747 8.28573C12.5495 6.9524 14.0513 5.99269 15.7802 5.40661L15.8681 5.36266C17.6557 4.74727 19.4725 4.5861 21.3187 4.87914H21.4505C21.685 4.87914 21.8901 4.79123 22.0659 4.6154C22.2418 4.43958 22.3297 4.24178 22.3297 4.022C22.3297 3.80222 22.2564 3.61174 22.1099 3.45057C21.9634 3.2894 21.7875 3.19416 21.5824 3.16485C20.967 3.07694 20.3223 3.03298 19.6484 3.03298C18.1245 3.03298 16.6447 3.26742 15.2088 3.73628H15.2967C13.3626 4.41027 11.6777 5.45789 10.2418 6.87914C8.80586 8.30038 7.73626 9.96339 7.03297 11.8681V11.9561C4.92308 12.5128 3.73626 13.7583 3.47253 15.6923C2.38828 16.3077 1.53846 17.1429 0.923077 18.1978C0.307692 19.2528 0 20.3956 0 21.6264C0 22.8572 0.300366 23.9854 0.901099 25.011C1.50183 26.0366 2.32234 26.8572 3.36264 27.4725C4.40293 28.0879 5.53846 28.3956 6.76923 28.3956H13.4505L20.044 36.7473C20.3077 37.1575 20.674 37.392 21.1429 37.4506H21.2747C21.7436 37.4506 22.1538 37.2454 22.5055 36.8352L29.1429 28.3956H37.2308C38.4615 28.3956 39.5897 28.0879 40.6154 27.4725C41.641 26.8572 42.4615 26.0366 43.0769 25.011C43.6923 23.9854 44 22.8572 44 21.6264C44 20.3956 43.6777 19.2454 43.033 18.1758C42.3883 17.1062 41.5238 16.2784 40.4396 15.6923V15.6484ZM21.3187 35.5605L14.6813 27.1209C14.3883 26.6813 14.3004 26.3443 14.4176 26.1099C14.5348 25.8755 14.7692 25.7436 15.1209 25.7143H17.2308C17.4945 25.7143 17.707 25.6264 17.8681 25.4506C18.0293 25.2747 18.1099 25.0696 18.1099 24.8352V18.9011C18.1099 18.4909 18.4029 18.2857 18.989 18.2857H23.6044C24.1905 18.2857 24.4835 18.4909 24.4835 18.9011V24.8352C24.4835 25.0696 24.5714 25.2747 24.7473 25.4506C24.9231 25.6264 25.1282 25.7143 25.3626 25.7143H27.4725C27.8242 25.7436 28.0586 25.8755 28.1758 26.1099C28.293 26.3443 28.2198 26.6813 27.956 27.1209L21.3187 35.5605ZM25.6703 39.1649H18.0659C17.8022 39.1649 17.5897 39.2528 17.4286 39.4286C17.2674 39.6044 17.1868 39.8095 17.1868 40.044C17.1868 40.2784 17.2674 40.4835 17.4286 40.6594C17.5897 40.8352 17.8022 40.9231 18.0659 40.9231H25.6703C25.9048 40.9231 26.1099 40.8352 26.2857 40.6594C26.4615 40.4835 26.5495 40.2784 26.5495 40.044C26.5495 39.8095 26.4615 39.6044 26.2857 39.4286C26.1099 39.2528 25.9048 39.1649 25.6703 39.1649ZM17.011 7.82419C15.6337 8.29306 14.4396 9.04031 13.4286 10.066C12.4176 11.0916 11.707 12.2931 11.2967 13.6703L11.2527 13.7143C11.2234 13.8022 11.2088 13.8901 11.2088 13.978C11.2088 14.2418 11.2967 14.4542 11.4725 14.6154C11.6484 14.7766 11.8462 14.8572 12.0659 14.8572C12.2857 14.8572 12.4689 14.7986 12.6154 14.6813C12.7619 14.5641 12.8645 14.4176 12.9231 14.2418C13.2747 13.1282 13.8535 12.1539 14.6593 11.3187C15.4652 10.4835 16.4103 9.86082 17.4945 9.45057H17.5385C17.7143 9.39196 17.8535 9.2894 17.956 9.14288C18.0586 8.99635 18.1099 8.8132 18.1099 8.59342C18.1099 8.37364 18.0293 8.18317 17.8681 8.022C17.707 7.86082 17.4945 7.78024 17.2308 7.78024C17.1429 7.78024 17.0549 7.79489 16.967 7.82419H17.011ZM24.3516 5.7143V5.75826C24.4982 5.84617 24.6593 5.89013 24.8352 5.89013C25.1575 5.89013 25.4066 5.75826 25.5824 5.49452C25.6703 5.348 25.7143 5.18683 25.7143 5.01101C25.7143 4.71797 25.5824 4.48353 25.3187 4.30771C25.1722 4.19049 24.9963 4.13189 24.7912 4.13189C24.5861 4.13189 24.3956 4.2198 24.2198 4.39562C24.044 4.57145 23.956 4.77657 23.956 5.01101C23.956 5.33335 24.0879 5.56778 24.3516 5.7143Z" fill="#434A57"/>
</g>
<defs>
<clipPath id="clip0_204_9398">
<rect width="44" height="44" fill="white" transform="matrix(1 0 0 -1 0 44)"/>
</clipPath>
</defs>
</svg>
