<svg width="150" height="22" viewBox="0 0 150 22" fill="none" xmlns="http://www.w3.org/2000/svg">
<circle cx="145.242" cy="17.7273" r="4" fill="#ff5b3a"/>
<path d="M0 21.6928V0H14.363V3.78142H4.58642V8.95041H13.4097V12.7318H4.58642V21.6928H0Z" fill="white"/>
<path d="M30.8471 0H35.4336V14.0876C35.4336 15.6694 35.0558 17.0534 34.3002 18.2398C33.5517 19.4261 32.503 20.3511 31.1543 21.0149C29.8056 21.6716 28.2344 22 26.4408 22C24.6401 22 23.0654 21.6716 21.7167 21.0149C20.3679 20.3511 19.3193 19.4261 18.5708 18.2398C17.8223 17.0534 17.448 15.6694 17.448 14.0876V0H22.0344V13.6957C22.0344 14.5219 22.2145 15.2563 22.5746 15.8989C22.9418 16.5415 23.4573 17.0464 24.1211 17.4136C24.7849 17.7808 25.5581 17.9644 26.4408 17.9644C27.3305 17.9644 28.1038 17.7808 28.7605 17.4136C29.4242 17.0464 29.9362 16.5415 30.2963 15.8989C30.6635 15.2563 30.8471 14.5219 30.8471 13.6957V0Z" fill="white"/>
<path d="M39.207 21.6928V0H47.7655C49.4038 0 50.802 0.293051 51.96 0.879153C53.1252 1.45819 54.0114 2.28085 54.6187 3.34714C55.233 4.40636 55.5402 5.6527 55.5402 7.08618C55.5402 8.52672 55.2295 9.76601 54.6081 10.804C53.9867 11.835 53.0863 12.6259 51.9071 13.1767C50.7349 13.7275 49.3155 14.0029 47.649 14.0029H41.9186V10.3168H46.9076C47.7832 10.3168 48.5105 10.1968 49.0896 9.95667C49.6686 9.71658 50.0993 9.35644 50.3818 8.87626C50.6713 8.39608 50.8161 7.79939 50.8161 7.08618C50.8161 6.36591 50.6713 5.75863 50.3818 5.26432C50.0993 4.77002 49.6651 4.39576 49.079 4.14155C48.4999 3.88028 47.7691 3.74964 46.8864 3.74964H43.7935V21.6928H39.207ZM50.922 11.8209L56.3134 21.6928H51.2504L45.9754 11.8209H50.922Z" fill="white"/>
<path d="M76.9259 0V21.6928H72.9644L63.5267 8.03948H63.3678V21.6928H58.7814V0H62.8064L72.17 13.6428H72.3606V0H76.9259Z" fill="white"/>
<path d="M84.4543 21.6928H79.5395L87.0282 0H92.9386L100.417 21.6928H95.5019L90.0681 4.95715H89.8987L84.4543 21.6928ZM84.1471 13.1661H95.7561V16.7463H84.1471V13.1661Z" fill="white"/>
<path d="M103.028 21.6928V0H111.586C113.224 0 114.623 0.293051 115.781 0.879153C116.946 1.45819 117.832 2.28085 118.439 3.34714C119.054 4.40636 119.361 5.6527 119.361 7.08618C119.361 8.52672 119.05 9.76601 118.429 10.804C117.807 11.835 116.907 12.6259 115.728 13.1767C114.556 13.7275 113.136 14.0029 111.47 14.0029H105.739V10.3168H110.728C111.604 10.3168 112.331 10.1968 112.91 9.95667C113.489 9.71658 113.92 9.35644 114.202 8.87626C114.492 8.39608 114.637 7.79939 114.637 7.08618C114.637 6.36591 114.492 5.75863 114.202 5.26432C113.92 4.77002 113.486 4.39576 112.9 4.14155C112.321 3.88028 111.59 3.74964 110.707 3.74964H107.614V21.6928H103.028ZM114.743 11.8209L120.134 21.6928H115.071L109.796 11.8209H114.743Z" fill="white"/>
<path d="M121.776 3.78142V0H139.592V3.78142H132.951V21.6928H128.417V3.78142H121.776Z" fill="white"/>
</svg>
