<svg width="150" height="23" viewBox="0 0 150 23" fill="none" xmlns="http://www.w3.org/2000/svg">
<circle cx="146" cy="18" r="4" fill="#ff5b3a"/>
<path d="M0.758301 21.9655V0.272705H15.1213V4.05412H5.34472V9.22311H14.168V13.0045H5.34472V21.9655H0.758301Z" fill="black"/>
<path d="M31.6054 0.272705H36.1919V14.3603C36.1919 15.9421 35.8141 17.3261 35.0585 18.5125C34.31 19.6988 33.2613 20.6239 31.9126 21.2876C30.5639 21.9443 28.9927 22.2727 27.1991 22.2727C25.3984 22.2727 23.8237 21.9443 22.475 21.2876C21.1262 20.6239 20.0776 19.6988 19.3291 18.5125C18.5806 17.3261 18.2063 15.9421 18.2063 14.3603V0.272705H22.7927V13.9684C22.7927 14.7946 22.9728 15.529 23.3329 16.1716C23.7001 16.8142 24.2156 17.3191 24.8794 17.6863C25.5432 18.0535 26.3164 18.2371 27.1991 18.2371C28.0888 18.2371 28.8621 18.0535 29.5188 17.6863C30.1825 17.3191 30.6945 16.8142 31.0546 16.1716C31.4218 15.529 31.6054 14.7946 31.6054 13.9684V0.272705Z" fill="black"/>
<path d="M39.9653 21.9655V0.272705H48.5238C50.1621 0.272705 51.5603 0.565756 52.7183 1.15186C53.8835 1.7309 54.7697 2.55356 55.377 3.61984C55.9913 4.67906 56.2985 5.92541 56.2985 7.35889C56.2985 8.79943 55.9878 10.0387 55.3664 11.0767C54.745 12.1077 53.8446 12.8986 52.6654 13.4494C51.4932 14.0002 50.0738 14.2756 48.4073 14.2756H42.6769V10.5895H47.6659C48.5415 10.5895 49.2688 10.4695 49.8479 10.2294C50.4269 9.98928 50.8576 9.62915 51.1401 9.14897C51.4296 8.66879 51.5744 8.0721 51.5744 7.35889C51.5744 6.63862 51.4296 6.03133 51.1401 5.53703C50.8576 5.04273 50.4234 4.66847 49.8373 4.41426C49.2582 4.15298 48.5274 4.02234 47.6447 4.02234H44.5518V21.9655H39.9653ZM51.6803 12.0936L57.0717 21.9655H52.0087L46.7337 12.0936H51.6803Z" fill="black"/>
<path d="M77.6842 0.272705V21.9655H73.7227L64.285 8.31218H64.1261V21.9655H59.5397V0.272705H63.5647L72.9283 13.9155H73.1189V0.272705H77.6842Z" fill="black"/>
<path d="M85.2126 21.9655H80.2978L87.7865 0.272705H93.6969L101.175 21.9655H96.2602L90.8264 5.22985H90.657L85.2126 21.9655ZM84.9054 13.4388H96.5144V17.019H84.9054V13.4388Z" fill="black"/>
<path d="M103.786 21.9655V0.272705H112.344C113.983 0.272705 115.381 0.565756 116.539 1.15186C117.704 1.7309 118.59 2.55356 119.198 3.61984C119.812 4.67906 120.119 5.92541 120.119 7.35889C120.119 8.79943 119.808 10.0387 119.187 11.0767C118.566 12.1077 117.665 12.8986 116.486 13.4494C115.314 14.0002 113.894 14.2756 112.228 14.2756H106.498V10.5895H111.487C112.362 10.5895 113.089 10.4695 113.669 10.2294C114.248 9.98928 114.678 9.62915 114.961 9.14897C115.25 8.66879 115.395 8.0721 115.395 7.35889C115.395 6.63862 115.25 6.03133 114.961 5.53703C114.678 5.04273 114.244 4.66847 113.658 4.41426C113.079 4.15298 112.348 4.02234 111.465 4.02234H108.372V21.9655H103.786ZM115.501 12.0936L120.892 21.9655H115.829L110.554 12.0936H115.501Z" fill="black"/>
<path d="M122.534 4.05412V0.272705H140.35V4.05412H133.709V21.9655H129.175V4.05412H122.534Z" fill="black"/>
</svg>
